<svg xmlns="http://www.w3.org/2000/svg" width="1024" height="1024" viewBox="0 0 1024 1024">
<g fill="none" stroke="black" stroke-width="1">
<path d="M 730 795 L 729 796 L 729 797 L 730 798 L 732 798 L 733 799 L 734 799 L 738 803 L 738 804 L 739 805 L 739 806 L 740 807 L 740 809 L 741 810 L 741 811 L 742 812 L 742 814 L 743 815 L 743 816 L 744 817 L 744 818 L 745 819 L 745 821 L 746 822 L 746 823 L 747 824 L 747 826 L 748 827 L 748 828 L 749 829 L 749 831 L 750 832 L 750 834 L 751 835 L 751 836 L 752 837 L 752 838 L 753 839 L 753 841 L 754 842 L 754 843 L 755 844 L 755 846 L 756 847 L 756 848 L 757 849 L 757 851 L 758 852 L 758 853 L 759 854 L 759 856 L 760 857 L 760 858 L 761 859 L 761 861 L 762 862 L 762 863 L 763 864 L 763 865 L 764 866 L 768 866 L 769 865 L 769 864 L 770 863 L 770 861 L 771 860 L 771 859 L 772 858 L 772 856 L 773 855 L 773 854 L 774 853 L 774 851 L 775 850 L 775 849 L 776 848 L 776 846 L 777 845 L 777 843 L 778 842 L 778 841 L 779 840 L 779 838 L 780 837 L 780 836 L 781 835 L 781 833 L 782 832 L 782 830 L 783 829 L 783 828 L 784 827 L 784 825 L 785 824 L 785 823 L 786 822 L 786 820 L 787 819 L 789 821 L 789 823 L 790 824 L 790 826 L 791 827 L 791 828 L 792 829 L 792 831 L 793 832 L 793 834 L 794 835 L 794 837 L 795 838 L 795 839 L 796 840 L 796 842 L 797 843 L 797 845 L 798 846 L 798 848 L 799 849 L 799 850 L 800 851 L 800 854 L 801 855 L 801 856 L 802 857 L 802 859 L 803 860 L 803 862 L 804 863 L 804 864 L 805 865 L 805 866 L 811 866 L 811 864 L 812 863 L 812 861 L 813 860 L 813 858 L 814 857 L 814 856 L 815 855 L 815 853 L 816 852 L 816 851 L 817 850 L 817 848 L 818 847 L 818 845 L 819 844 L 819 843 L 820 842 L 820 840 L 821 839 L 821 837 L 822 836 L 822 835 L 823 834 L 823 832 L 824 831 L 824 830 L 825 829 L 825 827 L 826 826 L 826 824 L 827 823 L 827 821 L 828 820 L 828 819 L 829 818 L 829 816 L 830 815 L 830 813 L 831 812 L 831 810 L 832 809 L 832 807 L 833 806 L 833 805 L 834 804 L 834 803 L 837 800 L 838 800 L 839 799 L 841 799 L 842 798 L 843 798 L 843 795 L 818 795 L 818 798 L 819 798 L 820 799 L 822 799 L 823 800 L 824 800 L 826 802 L 826 804 L 827 805 L 827 807 L 826 808 L 826 809 L 825 810 L 825 812 L 824 813 L 824 815 L 823 816 L 823 817 L 822 818 L 822 820 L 821 821 L 821 823 L 820 824 L 820 825 L 819 826 L 819 828 L 818 829 L 818 830 L 817 831 L 817 833 L 816 834 L 816 835 L 815 836 L 815 838 L 814 839 L 814 841 L 813 842 L 813 843 L 812 844 L 812 846 L 811 847 L 809 845 L 809 843 L 808 842 L 808 840 L 807 839 L 807 837 L 806 836 L 806 834 L 805 833 L 805 831 L 804 830 L 804 829 L 803 828 L 803 825 L 802 824 L 802 822 L 801 821 L 801 819 L 800 818 L 800 816 L 799 815 L 799 813 L 798 812 L 798 810 L 797 809 L 797 807 L 796 806 L 796 804 L 795 803 L 795 800 L 794 799 L 794 797 L 793 796 L 793 795 L 773 795 L 772 796 L 774 798 L 776 798 L 778 800 L 779 800 L 780 801 L 780 802 L 781 803 L 781 804 L 782 805 L 782 807 L 783 808 L 783 809 L 784 810 L 784 812 L 783 813 L 783 814 L 782 815 L 782 817 L 781 818 L 781 819 L 780 820 L 780 822 L 779 823 L 779 824 L 778 825 L 778 826 L 777 827 L 777 829 L 776 830 L 776 832 L 775 833 L 775 834 L 774 835 L 774 837 L 773 838 L 773 839 L 772 840 L 772 842 L 771 843 L 771 844 L 770 845 L 770 847 L 769 848 L 768 847 L 768 846 L 767 845 L 767 844 L 766 843 L 766 841 L 765 840 L 765 838 L 764 837 L 764 836 L 763 835 L 763 833 L 762 832 L 762 831 L 761 830 L 761 828 L 760 827 L 760 826 L 759 825 L 759 823 L 758 822 L 758 821 L 757 820 L 757 818 L 756 817 L 756 816 L 755 815 L 755 813 L 754 812 L 754 811 L 753 810 L 753 808 L 752 807 L 752 803 L 753 802 L 753 801 L 754 800 L 755 800 L 756 799 L 757 799 L 758 798 L 759 798 L 760 797 L 760 795 Z" />
<path d="M 330 794 L 329 795 L 327 795 L 326 796 L 324 796 L 323 797 L 320 797 L 319 798 L 316 798 L 315 799 L 314 799 L 313 800 L 315 802 L 317 802 L 318 803 L 319 803 L 322 806 L 322 857 L 321 858 L 321 859 L 320 860 L 319 860 L 318 861 L 316 861 L 315 862 L 314 862 L 313 863 L 313 865 L 342 865 L 343 864 L 343 862 L 341 862 L 340 861 L 338 861 L 335 858 L 335 857 L 334 856 L 334 794 Z" />
<path d="M 686 793 L 685 794 L 681 794 L 680 795 L 678 795 L 677 796 L 675 796 L 674 797 L 673 797 L 672 798 L 671 798 L 669 800 L 668 800 L 660 808 L 660 809 L 658 811 L 658 812 L 657 813 L 657 814 L 656 815 L 656 817 L 655 818 L 655 820 L 654 821 L 654 830 L 653 831 L 654 832 L 654 839 L 655 840 L 655 843 L 656 844 L 656 845 L 657 846 L 657 847 L 658 848 L 658 849 L 659 850 L 659 851 L 661 853 L 661 854 L 666 859 L 667 859 L 669 861 L 670 861 L 672 863 L 674 863 L 675 864 L 677 864 L 678 865 L 680 865 L 681 866 L 686 866 L 687 867 L 694 867 L 695 866 L 699 866 L 700 865 L 703 865 L 704 864 L 705 864 L 706 863 L 707 863 L 708 862 L 709 862 L 711 860 L 712 860 L 720 852 L 720 851 L 722 849 L 722 848 L 723 847 L 723 846 L 724 845 L 724 843 L 725 842 L 725 840 L 726 839 L 726 833 L 727 832 L 727 825 L 726 824 L 726 820 L 725 819 L 725 817 L 724 816 L 724 815 L 723 814 L 723 813 L 722 812 L 722 811 L 721 810 L 721 809 L 718 806 L 718 805 L 715 802 L 714 802 L 711 799 L 710 799 L 709 798 L 708 798 L 707 797 L 706 797 L 705 796 L 704 796 L 703 795 L 701 795 L 700 794 L 696 794 L 695 793 Z" />
<path d="M 398 793 L 397 794 L 393 794 L 392 795 L 390 795 L 389 796 L 388 796 L 387 797 L 386 797 L 385 798 L 384 798 L 382 800 L 381 800 L 379 802 L 378 802 L 377 803 L 376 802 L 376 794 L 372 794 L 371 795 L 368 795 L 367 796 L 365 796 L 364 797 L 361 797 L 360 798 L 357 798 L 356 799 L 355 799 L 354 800 L 355 801 L 355 802 L 358 802 L 359 803 L 360 803 L 363 806 L 363 807 L 364 808 L 364 855 L 363 856 L 363 858 L 360 861 L 358 861 L 357 862 L 355 862 L 354 863 L 355 864 L 355 865 L 385 865 L 385 862 L 382 862 L 381 861 L 379 861 L 376 858 L 376 810 L 377 809 L 378 809 L 381 806 L 382 806 L 383 805 L 384 805 L 385 804 L 386 804 L 387 803 L 389 803 L 390 802 L 394 802 L 395 801 L 401 801 L 402 802 L 404 802 L 405 803 L 406 803 L 411 808 L 411 809 L 412 810 L 412 812 L 413 813 L 413 857 L 412 858 L 412 859 L 411 860 L 410 860 L 409 861 L 408 861 L 407 862 L 405 862 L 405 863 L 404 864 L 405 865 L 434 865 L 435 864 L 435 862 L 433 862 L 432 861 L 429 861 L 426 858 L 426 857 L 425 856 L 425 811 L 424 810 L 424 808 L 423 807 L 423 806 L 422 805 L 422 804 L 421 803 L 421 802 L 419 800 L 419 799 L 418 798 L 417 798 L 415 796 L 414 796 L 413 795 L 412 795 L 411 794 L 408 794 L 407 793 Z" />
<path d="M 325 766 L 324 767 L 323 767 L 321 769 L 321 770 L 320 771 L 320 776 L 321 777 L 321 778 L 324 781 L 326 781 L 327 782 L 329 782 L 330 781 L 332 781 L 335 778 L 335 777 L 336 776 L 336 771 L 335 770 L 335 769 L 333 767 L 332 767 L 331 766 Z" />
<path d="M 535 765 L 534 766 L 534 767 L 535 768 L 537 768 L 538 769 L 539 769 L 543 773 L 543 774 L 544 775 L 544 855 L 543 856 L 543 858 L 541 860 L 540 860 L 539 861 L 537 861 L 536 862 L 535 862 L 535 865 L 567 865 L 567 862 L 565 862 L 564 861 L 562 861 L 561 860 L 560 860 L 557 857 L 557 855 L 556 854 L 556 820 L 558 818 L 583 818 L 584 819 L 586 819 L 589 822 L 589 823 L 590 824 L 590 826 L 591 827 L 591 828 L 594 828 L 595 827 L 595 802 L 594 801 L 591 801 L 591 802 L 590 803 L 590 804 L 589 805 L 589 807 L 588 808 L 588 809 L 585 812 L 584 812 L 583 813 L 559 813 L 558 814 L 556 812 L 556 771 L 557 770 L 580 770 L 581 771 L 582 771 L 583 770 L 584 771 L 588 771 L 590 773 L 591 773 L 594 776 L 594 777 L 596 779 L 596 780 L 597 781 L 597 782 L 598 783 L 598 785 L 599 785 L 600 786 L 603 786 L 604 785 L 604 779 L 603 778 L 603 769 L 602 768 L 602 765 Z" />
<path d="M 183 765 L 183 766 L 182 767 L 183 768 L 184 768 L 185 769 L 187 769 L 188 770 L 189 770 L 193 774 L 193 793 L 192 794 L 192 807 L 191 808 L 191 822 L 190 823 L 190 837 L 189 838 L 189 849 L 188 850 L 188 854 L 187 855 L 187 856 L 186 857 L 186 858 L 185 859 L 184 859 L 182 861 L 181 861 L 180 862 L 179 862 L 179 864 L 180 865 L 207 865 L 208 864 L 208 863 L 207 862 L 205 862 L 204 861 L 202 861 L 201 860 L 200 860 L 195 855 L 195 840 L 196 839 L 196 826 L 197 825 L 197 812 L 198 811 L 198 795 L 199 794 L 199 783 L 200 782 L 201 783 L 201 785 L 202 786 L 202 787 L 203 788 L 203 790 L 204 791 L 204 792 L 205 793 L 205 794 L 206 795 L 206 797 L 207 798 L 207 799 L 208 800 L 208 802 L 209 803 L 209 804 L 210 805 L 210 807 L 211 808 L 211 809 L 212 810 L 212 811 L 213 812 L 213 813 L 214 814 L 214 816 L 215 817 L 215 819 L 216 820 L 216 821 L 217 822 L 217 824 L 218 825 L 218 826 L 219 827 L 219 828 L 220 829 L 220 831 L 221 832 L 221 834 L 222 835 L 222 836 L 223 837 L 223 839 L 224 840 L 224 841 L 225 842 L 225 844 L 226 845 L 226 846 L 227 847 L 227 849 L 228 850 L 228 851 L 229 852 L 229 854 L 230 855 L 230 856 L 231 857 L 231 859 L 232 860 L 232 861 L 233 862 L 233 864 L 234 865 L 237 865 L 238 864 L 238 863 L 239 862 L 239 861 L 240 860 L 240 859 L 241 858 L 241 856 L 242 855 L 242 854 L 243 853 L 243 851 L 244 850 L 244 849 L 245 848 L 245 847 L 246 846 L 246 844 L 247 843 L 247 841 L 248 840 L 248 839 L 249 838 L 249 837 L 250 836 L 250 834 L 251 833 L 251 832 L 252 831 L 252 829 L 253 828 L 253 827 L 254 826 L 254 824 L 255 823 L 255 822 L 256 821 L 256 819 L 257 818 L 257 817 L 258 816 L 258 814 L 259 813 L 259 812 L 260 811 L 260 809 L 261 808 L 261 807 L 262 806 L 262 804 L 263 803 L 263 802 L 264 801 L 264 800 L 265 799 L 265 797 L 266 796 L 266 795 L 267 794 L 267 792 L 268 791 L 268 790 L 269 789 L 269 787 L 270 786 L 270 785 L 271 784 L 271 783 L 272 782 L 272 780 L 273 779 L 274 780 L 274 790 L 275 791 L 274 792 L 275 793 L 275 809 L 276 810 L 276 826 L 277 827 L 277 844 L 278 845 L 278 856 L 273 861 L 271 861 L 270 862 L 268 862 L 268 865 L 301 865 L 302 864 L 302 862 L 300 862 L 299 861 L 297 861 L 296 860 L 295 860 L 293 858 L 293 857 L 292 856 L 292 853 L 291 852 L 291 843 L 290 842 L 290 831 L 289 830 L 289 815 L 288 814 L 288 799 L 287 798 L 287 780 L 286 779 L 286 777 L 287 776 L 287 772 L 289 770 L 290 770 L 291 769 L 292 769 L 293 768 L 294 768 L 295 767 L 295 765 L 273 765 L 272 766 L 272 767 L 271 768 L 271 769 L 270 770 L 270 772 L 269 773 L 269 774 L 268 775 L 268 777 L 267 778 L 267 779 L 266 780 L 266 782 L 265 783 L 265 784 L 264 785 L 264 786 L 263 787 L 263 789 L 262 790 L 262 791 L 261 792 L 261 794 L 260 795 L 260 796 L 259 797 L 259 799 L 258 800 L 258 801 L 257 802 L 257 803 L 256 804 L 256 806 L 255 807 L 255 808 L 254 809 L 254 810 L 253 811 L 253 813 L 252 814 L 252 815 L 251 816 L 251 818 L 250 819 L 250 820 L 249 821 L 249 822 L 248 823 L 248 824 L 247 825 L 247 827 L 246 828 L 246 829 L 245 830 L 245 832 L 244 833 L 244 834 L 243 835 L 243 836 L 242 837 L 242 839 L 241 840 L 241 841 L 239 843 L 238 842 L 238 841 L 237 840 L 237 839 L 236 838 L 236 836 L 235 835 L 235 834 L 234 833 L 234 831 L 233 830 L 233 829 L 232 828 L 232 826 L 231 825 L 231 823 L 230 822 L 230 821 L 229 820 L 229 819 L 228 818 L 228 816 L 227 815 L 227 814 L 226 813 L 226 811 L 225 810 L 225 809 L 224 808 L 224 806 L 223 805 L 223 804 L 222 803 L 222 802 L 221 801 L 221 799 L 220 798 L 220 797 L 219 796 L 219 794 L 218 793 L 218 792 L 217 791 L 217 789 L 216 788 L 216 787 L 215 786 L 215 784 L 214 783 L 214 782 L 213 781 L 213 780 L 212 779 L 212 777 L 211 776 L 211 775 L 210 774 L 210 773 L 209 772 L 209 771 L 208 770 L 208 768 L 207 767 L 207 766 L 206 765 Z" />
<path d="M 631 761 L 630 762 L 627 762 L 626 763 L 624 763 L 623 764 L 621 764 L 620 765 L 617 765 L 616 766 L 614 766 L 613 767 L 613 769 L 615 769 L 616 770 L 618 770 L 619 771 L 620 771 L 621 772 L 621 773 L 622 774 L 622 857 L 618 861 L 617 861 L 616 862 L 614 862 L 613 863 L 613 864 L 614 865 L 642 865 L 643 864 L 643 862 L 641 862 L 640 861 L 639 861 L 638 860 L 637 860 L 635 858 L 635 856 L 634 855 L 634 761 Z" />
<path d="M 510 761 L 509 762 L 507 762 L 506 763 L 503 763 L 502 764 L 499 764 L 498 765 L 496 765 L 495 766 L 493 766 L 492 767 L 492 768 L 493 769 L 495 769 L 496 770 L 498 770 L 501 773 L 501 796 L 500 797 L 499 797 L 498 796 L 496 796 L 495 795 L 493 795 L 492 794 L 488 794 L 487 793 L 476 793 L 475 794 L 471 794 L 470 795 L 469 795 L 468 796 L 466 796 L 465 797 L 464 797 L 462 799 L 461 799 L 459 801 L 458 801 L 453 806 L 453 807 L 451 809 L 451 810 L 449 812 L 449 813 L 448 814 L 448 815 L 447 816 L 447 818 L 446 819 L 446 822 L 445 823 L 445 829 L 444 830 L 445 831 L 445 842 L 446 843 L 446 846 L 447 847 L 447 848 L 448 849 L 448 851 L 449 852 L 449 853 L 451 855 L 451 856 L 456 861 L 457 861 L 459 863 L 460 863 L 461 864 L 462 864 L 463 865 L 465 865 L 466 866 L 471 866 L 472 867 L 479 867 L 480 866 L 484 866 L 485 865 L 488 865 L 489 864 L 490 864 L 491 863 L 492 863 L 494 861 L 495 861 L 497 859 L 498 859 L 500 857 L 502 859 L 502 860 L 504 862 L 504 863 L 505 864 L 505 865 L 520 865 L 521 864 L 521 862 L 520 862 L 519 861 L 517 861 L 514 858 L 514 855 L 513 854 L 513 761 Z" />
<path d="M 494 140 L 493 141 L 480 141 L 479 142 L 471 142 L 470 143 L 464 143 L 463 144 L 457 144 L 456 145 L 452 145 L 451 146 L 447 146 L 446 147 L 442 147 L 441 148 L 438 148 L 437 149 L 434 149 L 433 150 L 430 150 L 429 151 L 427 151 L 426 152 L 423 152 L 422 153 L 420 153 L 419 154 L 417 154 L 416 155 L 413 155 L 412 156 L 410 156 L 409 157 L 408 157 L 407 158 L 405 158 L 404 159 L 402 159 L 401 160 L 399 160 L 398 161 L 397 161 L 396 162 L 394 162 L 393 163 L 392 163 L 391 164 L 390 164 L 389 165 L 388 165 L 387 166 L 385 166 L 384 167 L 383 167 L 382 168 L 381 168 L 380 169 L 379 169 L 378 170 L 377 170 L 376 171 L 375 171 L 374 172 L 373 172 L 372 173 L 371 173 L 370 174 L 369 174 L 367 176 L 366 176 L 365 177 L 364 177 L 363 178 L 362 178 L 361 179 L 360 179 L 358 181 L 357 181 L 356 182 L 355 182 L 353 184 L 352 184 L 350 186 L 349 186 L 347 188 L 346 188 L 344 190 L 343 190 L 341 192 L 340 192 L 338 194 L 337 194 L 334 197 L 333 197 L 330 200 L 329 200 L 325 204 L 324 204 L 318 210 L 317 210 L 293 234 L 293 235 L 287 241 L 287 242 L 282 247 L 282 248 L 279 251 L 279 252 L 277 254 L 277 255 L 274 258 L 274 259 L 272 261 L 272 262 L 270 264 L 270 265 L 268 267 L 268 268 L 266 270 L 266 271 L 264 273 L 264 274 L 263 275 L 263 276 L 261 278 L 261 279 L 260 280 L 260 281 L 258 283 L 258 284 L 257 285 L 257 286 L 256 287 L 256 288 L 255 289 L 255 290 L 253 292 L 253 293 L 252 294 L 252 295 L 251 296 L 251 297 L 250 298 L 250 299 L 249 300 L 249 301 L 248 302 L 248 303 L 247 304 L 247 306 L 246 307 L 246 308 L 245 309 L 245 310 L 244 311 L 244 313 L 243 314 L 243 315 L 242 316 L 242 318 L 241 319 L 241 320 L 240 321 L 240 323 L 239 324 L 239 325 L 238 326 L 238 328 L 237 329 L 237 331 L 236 332 L 236 334 L 235 335 L 235 337 L 234 338 L 234 340 L 233 341 L 233 344 L 232 345 L 232 347 L 231 348 L 231 351 L 230 352 L 230 355 L 229 356 L 229 359 L 228 360 L 228 363 L 227 364 L 227 368 L 226 369 L 226 373 L 225 374 L 225 379 L 224 380 L 224 384 L 223 385 L 223 393 L 222 394 L 222 401 L 221 402 L 221 412 L 220 413 L 220 444 L 221 445 L 220 446 L 221 447 L 221 458 L 222 459 L 222 465 L 223 466 L 223 473 L 224 474 L 224 479 L 225 480 L 225 484 L 226 485 L 226 490 L 227 491 L 227 495 L 228 496 L 228 499 L 229 500 L 229 502 L 230 503 L 230 506 L 231 507 L 231 509 L 232 510 L 232 513 L 233 514 L 233 516 L 234 517 L 234 519 L 235 520 L 235 522 L 236 523 L 236 525 L 237 526 L 237 528 L 238 529 L 238 530 L 239 531 L 239 533 L 240 534 L 240 536 L 241 537 L 241 538 L 242 539 L 242 541 L 243 542 L 243 543 L 244 544 L 244 546 L 245 547 L 245 548 L 246 549 L 246 550 L 247 551 L 247 553 L 249 555 L 249 557 L 250 558 L 250 559 L 251 560 L 251 561 L 252 562 L 252 563 L 253 564 L 253 565 L 254 566 L 254 567 L 256 569 L 256 570 L 257 571 L 257 572 L 258 573 L 258 574 L 260 576 L 260 577 L 261 578 L 261 579 L 263 581 L 263 582 L 264 583 L 264 584 L 266 586 L 266 587 L 268 589 L 268 590 L 270 592 L 270 593 L 273 596 L 273 597 L 275 599 L 275 600 L 278 603 L 278 604 L 281 607 L 281 608 L 285 612 L 285 613 L 291 619 L 291 620 L 298 627 L 298 628 L 299 628 L 300 629 L 300 630 L 306 636 L 307 636 L 319 648 L 320 648 L 326 654 L 327 654 L 331 658 L 332 658 L 335 661 L 336 661 L 339 664 L 340 664 L 343 667 L 344 667 L 346 669 L 347 669 L 349 671 L 350 671 L 352 673 L 353 673 L 355 675 L 356 675 L 357 676 L 358 676 L 360 678 L 361 678 L 363 680 L 364 680 L 365 681 L 366 681 L 367 682 L 368 682 L 370 684 L 371 684 L 372 685 L 373 685 L 374 686 L 375 686 L 376 687 L 377 687 L 378 688 L 379 688 L 380 689 L 381 689 L 382 690 L 383 690 L 384 691 L 385 691 L 386 692 L 387 692 L 388 693 L 389 693 L 390 694 L 391 694 L 392 695 L 393 695 L 394 696 L 396 696 L 397 697 L 398 697 L 399 698 L 401 698 L 402 699 L 403 699 L 404 700 L 405 700 L 406 701 L 408 701 L 409 702 L 411 702 L 412 703 L 413 703 L 414 704 L 416 704 L 417 705 L 419 705 L 420 706 L 422 706 L 423 707 L 425 707 L 426 708 L 429 708 L 430 709 L 432 709 L 433 710 L 436 710 L 437 711 L 440 711 L 441 712 L 445 712 L 446 713 L 450 713 L 451 714 L 454 714 L 455 715 L 460 715 L 461 716 L 467 716 L 468 717 L 474 717 L 475 718 L 481 718 L 482 719 L 493 719 L 494 720 L 525 720 L 526 719 L 537 719 L 538 718 L 545 718 L 546 717 L 552 717 L 553 716 L 560 716 L 561 715 L 564 715 L 565 714 L 570 714 L 571 713 L 574 713 L 575 712 L 578 712 L 579 711 L 582 711 L 583 710 L 586 710 L 587 709 L 589 709 L 590 708 L 593 708 L 594 707 L 596 707 L 597 706 L 599 706 L 600 705 L 602 705 L 603 704 L 605 704 L 606 703 L 608 703 L 609 702 L 611 702 L 612 701 L 613 701 L 614 700 L 616 700 L 617 699 L 618 699 L 619 698 L 620 698 L 621 697 L 623 697 L 624 696 L 625 696 L 626 695 L 627 695 L 628 694 L 629 694 L 630 693 L 632 693 L 633 692 L 634 692 L 636 690 L 637 690 L 638 689 L 639 689 L 640 688 L 641 688 L 642 687 L 643 687 L 644 686 L 645 686 L 646 685 L 647 685 L 649 683 L 650 683 L 651 682 L 652 682 L 653 681 L 654 681 L 656 679 L 657 679 L 658 678 L 659 678 L 661 676 L 662 676 L 664 674 L 665 674 L 666 673 L 667 673 L 669 671 L 670 671 L 673 668 L 674 668 L 676 666 L 677 666 L 680 663 L 681 663 L 684 660 L 685 660 L 690 655 L 691 655 L 697 649 L 698 649 L 705 642 L 706 642 L 715 633 L 715 632 L 727 620 L 727 619 L 732 614 L 732 613 L 736 609 L 736 608 L 739 605 L 739 604 L 742 601 L 742 600 L 744 598 L 744 597 L 746 595 L 746 594 L 748 592 L 748 591 L 750 589 L 750 588 L 752 586 L 752 585 L 754 583 L 754 582 L 755 581 L 755 580 L 757 578 L 757 577 L 758 576 L 758 575 L 760 573 L 760 572 L 761 571 L 761 570 L 762 569 L 762 568 L 763 567 L 763 566 L 764 565 L 764 564 L 765 563 L 765 562 L 766 561 L 766 560 L 767 559 L 767 558 L 768 557 L 768 556 L 769 555 L 769 554 L 770 553 L 770 552 L 771 551 L 771 550 L 772 549 L 772 547 L 773 546 L 773 545 L 774 544 L 774 542 L 775 541 L 775 540 L 776 539 L 776 537 L 777 536 L 777 534 L 778 533 L 778 532 L 779 531 L 779 529 L 780 528 L 780 526 L 781 525 L 781 524 L 782 523 L 782 520 L 783 519 L 783 517 L 784 516 L 784 514 L 785 513 L 785 510 L 786 509 L 786 507 L 787 506 L 787 503 L 788 502 L 788 499 L 789 498 L 789 495 L 790 494 L 790 490 L 791 489 L 791 486 L 792 485 L 792 479 L 793 478 L 793 474 L 794 473 L 794 467 L 795 466 L 795 458 L 796 457 L 796 447 L 797 446 L 797 414 L 796 413 L 796 402 L 795 401 L 796 400 L 795 399 L 795 393 L 794 392 L 794 385 L 793 384 L 793 380 L 792 379 L 792 374 L 791 373 L 791 369 L 790 368 L 790 364 L 789 363 L 789 359 L 788 358 L 788 355 L 787 354 L 787 352 L 786 351 L 786 348 L 785 347 L 785 344 L 784 343 L 784 341 L 783 340 L 783 338 L 782 337 L 782 335 L 781 334 L 781 332 L 780 331 L 780 328 L 779 327 L 779 326 L 778 325 L 778 323 L 777 322 L 777 320 L 776 319 L 776 318 L 775 317 L 775 316 L 774 315 L 774 313 L 773 312 L 773 311 L 772 310 L 772 309 L 771 308 L 771 307 L 770 306 L 770 305 L 769 304 L 769 303 L 768 302 L 768 301 L 767 300 L 767 299 L 766 298 L 766 296 L 765 295 L 765 294 L 763 292 L 763 291 L 762 290 L 762 289 L 761 288 L 761 287 L 760 286 L 760 285 L 759 284 L 759 283 L 757 281 L 757 280 L 756 279 L 756 278 L 754 276 L 754 275 L 752 273 L 752 272 L 751 271 L 751 270 L 749 268 L 749 267 L 747 265 L 747 264 L 745 262 L 745 261 L 742 258 L 742 257 L 740 255 L 740 254 L 737 251 L 737 250 L 733 246 L 733 245 L 728 240 L 728 239 L 715 226 L 715 225 L 714 225 L 700 211 L 699 211 L 693 205 L 692 205 L 688 201 L 687 201 L 684 198 L 683 198 L 680 195 L 679 195 L 676 192 L 675 192 L 673 190 L 672 190 L 670 188 L 669 188 L 667 186 L 666 186 L 664 184 L 663 184 L 662 183 L 661 183 L 659 181 L 658 181 L 657 180 L 656 180 L 655 179 L 654 179 L 652 177 L 651 177 L 650 176 L 649 176 L 648 175 L 647 175 L 646 174 L 645 174 L 644 173 L 643 173 L 642 172 L 641 172 L 640 171 L 639 171 L 638 170 L 637 170 L 635 168 L 633 168 L 632 167 L 631 167 L 630 166 L 629 166 L 628 165 L 627 165 L 626 164 L 624 164 L 623 163 L 622 163 L 621 162 L 619 162 L 618 161 L 617 161 L 616 160 L 614 160 L 613 159 L 612 159 L 611 158 L 609 158 L 608 157 L 606 157 L 605 156 L 603 156 L 602 155 L 600 155 L 599 154 L 597 154 L 596 153 L 593 153 L 592 152 L 590 152 L 589 151 L 587 151 L 586 150 L 582 150 L 581 149 L 579 149 L 578 148 L 574 148 L 573 147 L 570 147 L 569 146 L 566 146 L 565 145 L 560 145 L 559 144 L 555 144 L 554 143 L 547 143 L 546 142 L 538 142 L 537 141 L 529 141 L 528 140 L 496 140 L 495 141 Z" />
</g>
</svg>